<svg width="227" height="80" viewBox="0 0 227 80" fill="none" xmlns="http://www.w3.org/2000/svg">
<g clip-path="url(#clip0_1_2668)">
<rect width="227" height="80" rx="4" fill="#3B28CC"/>
<path d="M746.33 330.965L-565.643 -4652.2H-226.836L1085.14 330.965H746.33Z" fill="#6656E1"/>
<path d="M1160.31 3468.64L-151.658 -1514.53H187.148L1499.12 3468.64H1160.31Z" fill="#3B28CC"/>
<path d="M486.018 1896.29L-157.806 -553.346H8.45647L652.28 1896.29H486.018Z" fill="#6656E1"/>
<path d="M316.022 471.168L-94.2734 -1088.25H11.682L421.978 471.168H316.022Z" fill="#3B28CC"/>
<path d="M146.668 844.949L-120.916 -170.103H-51.8146L215.769 844.949H146.668Z" fill="#3B28CC"/>
<path d="M576.424 601.779L65.582 -1340.33H197.503L708.345 601.779H576.424Z" fill="#6656E1"/>
<path d="M35.3746 335.353L-475.468 -1606.75H-343.547L167.295 335.353H35.3746Z" fill="#3F8EFC"/>
</g>
<defs>
<clipPath id="clip0_1_2668">
<rect width="227" height="80" rx="4" fill="white"/>
</clipPath>
</defs>
</svg>
